<svg width="25" height="25" viewBox="0 0 25 25" fill="none" xmlns="http://www.w3.org/2000/svg">
<path d="M25 12.4994H8.97189M3.31438 12.4994H1M3.31438 12.4994C3.31438 11.7493 3.61234 11.03 4.14271 10.4996C4.67309 9.96921 5.39243 9.67125 6.14249 9.67125C6.89255 9.67125 7.61189 9.96921 8.14226 10.4996C8.67263 11.03 8.97059 11.7493 8.97059 12.4994C8.97059 13.2494 8.67263 13.9688 8.14226 14.4991C7.61189 15.0295 6.89255 15.3275 6.14249 15.3275C5.39243 15.3275 4.67309 15.0295 4.14271 14.4991C3.61234 13.9688 3.31438 13.2494 3.31438 12.4994ZM25 21.0706H17.5431M17.5431 21.0706C17.5431 21.8208 17.2445 22.541 16.714 23.0715C16.1835 23.602 15.464 23.9 14.7137 23.9C13.9637 23.9 13.2443 23.6008 12.714 23.0704C12.1836 22.54 11.8856 21.8207 11.8856 21.0706M17.5431 21.0706C17.5431 20.3204 17.2445 19.6015 16.714 19.071C16.1835 18.5405 15.464 18.2425 14.7137 18.2425C13.9637 18.2425 13.2443 18.5405 12.714 19.0708C12.1836 19.6012 11.8856 20.3205 11.8856 21.0706M11.8856 21.0706H1M25 3.92811H20.9719M15.3144 3.92811H1M15.3144 3.92811C15.3144 3.17805 15.6123 2.45871 16.1427 1.92834C16.6731 1.39797 17.3924 1.10001 18.1425 1.10001C18.5139 1.10001 18.8816 1.17316 19.2248 1.31528C19.5679 1.45741 19.8796 1.66573 20.1423 1.92834C20.4049 2.19095 20.6132 2.50272 20.7553 2.84584C20.8974 3.18897 20.9706 3.55672 20.9706 3.92811C20.9706 4.29951 20.8974 4.66726 20.7553 5.01038C20.6132 5.35351 20.4049 5.66527 20.1423 5.92789C19.8796 6.1905 19.5679 6.39882 19.2248 6.54095C18.8816 6.68307 18.5139 6.75622 18.1425 6.75622C17.3924 6.75622 16.6731 6.45826 16.1427 5.92789C15.6123 5.39752 15.3144 4.67818 15.3144 3.92811Z" stroke="black" stroke-width="1.5" stroke-miterlimit="10" stroke-linecap="round"/>
</svg>
