<svg width="20" height="21" viewBox="0 0 20 21" fill="none" xmlns="http://www.w3.org/2000/svg">
<path d="M17.2987 7.816H2.7027C2.40731 7.81633 2.11582 7.88342 1.85002 8.01226C1.58421 8.14109 1.35096 8.32834 1.1677 8.56C0.985201 8.79102 0.857677 9.06054 0.794784 9.34814C0.731892 9.63575 0.735282 9.9339 0.804697 10.22L2.3697 16.628C2.59629 17.4536 3.08825 18.1817 3.7697 18.7C4.4517 19.219 5.2867 19.5 6.1457 19.5H13.8537C14.7127 19.5 15.5477 19.219 16.2297 18.7C16.9111 18.1817 17.4031 17.4536 17.6297 16.628L19.1947 10.221C19.3 9.78906 19.2538 9.33403 19.0638 8.93209C18.8737 8.53015 18.5514 8.20568 18.1507 8.013C17.8841 7.885 17.5924 7.81772 17.2967 7.816M6.0877 11.71V15.605M10.0007 11.71V15.605M13.9137 11.71V15.605M16.8487 7.816C16.8484 6.92005 16.671 6.03299 16.3267 5.20582C15.9824 4.37864 15.4781 3.62765 14.8427 2.996C13.5562 1.7165 11.8152 0.998803 10.0007 1C8.18624 0.998803 6.44521 1.7165 5.1587 2.996C4.52346 3.62773 4.01932 4.37876 3.67523 5.20593C3.33115 6.03311 3.15391 6.92012 3.1537 7.816" stroke="white" stroke-width="1.5" stroke-linecap="round" stroke-linejoin="round"/>
</svg>
